# xmcd
# 
# Track frame offsets:
#     150
#     29550
#     78065
#     128460
# 
# Disc length: 2142
# 
# Revision: 0
# Processed by: cddbd v1.5.2PL0 Copyright (c) Steve Scherf et al.
# Submitted via: BonkEnc v1.0.8
# 
DISCID=22085c04
DTITLE=Robin Kenyatta - Until
DYEAR=1968
DGENRE=Free, Avant
TTITLE0=Until
TTITLE1=This Year
TTITLE2=You Know How We Do
TTITLE3=Little Blue Devil
EXTD=
EXTT0=
EXTT1=
EXTT2=
EXTT3=
PLAYORDER=
